PathFileType	4	(X/Y/Z)	/Users/itak/Documents/Research/Walk-IL/dataset/trc/00111_00007.trc
DataRate	CameraRate	NumFrames	NumMarkers	Units	OrigDataRate	OrigDataStartFrame	OrigNumFrames
100.000000	100.000000	4	53	mm	100.000000	276	552
Frame#	Time	RPSI			LPSI			L3			STRN			T10			C7			CLAV			RBAK			LBAK			LSHO			LUPA			LAEL			LAOL			LWTS			LWPS			LFRA			LIFD			LHPS			LHTS			RSHO			RUPA			RAEL			RAOL			RWTS			RWPS			RFRA			RIFD			RHTS			RHPS			RBHD			LFHD			RFHD			LBHD			LHIP			RHIP			RASI			LASI			LKNE			LTHI			LANK			LTIP			LTOE			LMT1			LMT5			LHEE			RKNE			RTHI			RANK			RTIP			RTOE			RMT1			RMT5			RHEE			
		X1	Y1	Z1	X2	Y2	Z2	X3	Y3	Z3	X4	Y4	Z4	X5	Y5	Z5	X6	Y6	Z6	X7	Y7	Z7	X8	Y8	Z8	X9	Y9	Z9	X10	Y10	Z10	X11	Y11	Z11	X12	Y12	Z12	X13	Y13	Z13	X14	Y14	Z14	X15	Y15	Z15	X16	Y16	Z16	X17	Y17	Z17	X18	Y18	Z18	X19	Y19	Z19	X20	Y20	Z20	X21	Y21	Z21	X22	Y22	Z22	X23	Y23	Z23	X24	Y24	Z24	X25	Y25	Z25	X26	Y26	Z26	X27	Y27	Z27	X28	Y28	Z28	X29	Y29	Z29	X30	Y30	Z30	X31	Y31	Z31	X32	Y32	Z32	X33	Y33	Z33	X34	Y34	Z34	X35	Y35	Z35	X36	Y36	Z36	X37	Y37	Z37	X38	Y38	Z38	X39	Y39	Z39	X40	Y40	Z40	X41	Y41	Z41	X42	Y42	Z42	X43	Y43	Z43	X44	Y44	Z44	X45	Y45	Z45	X46	Y46	Z46	X47	Y47	Z47	X48	Y48	Z48	X49	Y49	Z49	X50	Y50	Z50	X51	Y51	Z51	X52	Y52	Z52	X53	Y53	Z53	

277	2.76	-106.793586730957	1098.397705078125	-252.4021301269531	-104.2496948242188	1112.08740234375	-387.5126342773438	-111.8240585327148	1144.267944335938	-317.8831176757812	120.635124206543	1333.194213867188	-312.1064453125	-127.3399200439453	1292.980224609375	-299.3375244140625	-89.53978729248047	1584.128173828125	-324.5067443847656	90.52346801757812	1469.9697265625	-320.7112426757812	-141.5322265625	1405.569580078125	-225.6809844970703	-104.5285034179688	1560.521728515625	-422.9967956542969	-24.20287895202637	1541.323486328125	-495.0590209960938	-54.76861572265625	1411.677856445312	-562.6085205078125	-46.98479080200195	1196.220458984375	-595.1198120117188	-106.1017990112305	1180.8212890625	-533.1835327148438	62.2389030456543	942.119140625	-572.1329956054688	-21.87008666992188	913.35400390625	-590.90869140625	-29.44346237182617	1080.836181640625	-605.4246215820312	80.01113891601562	747.2098999023438	-562.5961303710938	8.866230964660645	839.4905395507812	-598.6687622070312	78.66583251953125	854.244384765625	-589.70458984375	-24.12791633605957	1572.934936523438	-146.2658081054688	-36.73369216918945	1501.83251953125	-78.6890869140625	-36.11533355712891	1207.841918945312	-41.95358657836914	-56.53695678710938	1202.581298828125	-135.8847808837891	131.0117340087891	983.57861328125	-74.50491333007812	66.51171112060547	958.4656372070312	-30.07324981689453	-2.630757093429565	1137.04150390625	-28.5694637298584	177.3892669677734	793.7359008789062	-93.81851196289062	174.6261901855469	880.264404296875	-73.38032531738281	116.3743515014648	864.7130126953125	-31.16253280639648	-64.48532867431641	1749.360961914062	-261.9929504394531	87.2490234375	1825.774658203125	-402.8851318359375	88.88667297363281	1838.455200195312	-274.0476379394531	-75.48867797851562	1739.244995117188	-397.293701171875	-4.573532104492188	1034.647338867188	-499.8894958496094	10.90616512298584	989.5126953125	-135.979736328125	97.73200988769531	1064.660034179688	-178.6861724853516	97.27582550048828	1087.691772460938	-440.8904418945312	177.4042816162109	555.6100463867188	-462.1624755859375	107.2679824829102	685.8793334960938	-495.1559448242188	148.8077087402344	35.36453628540039	-460.8215637207031	126.815673828125	290.3918151855469	-492.5741577148438	373.3169555664062	37.93887329101562	-381.3280944824219	290.3658447265625	43.97880172729492	-355.0394897460938	277.4369506835938	35.02407836914062	-472.134765625	74.33088684082031	38.18813705444336	-406.1460266113281	-38.5389289855957	498.13330078125	-189.2148742675781	14.58044624328613	777.9652709960938	-155.3249816894531	-310.4085388183594	46.06242752075195	-190.8751525878906	-106.9516525268555	374.0325317382812	-173.9015350341797	-83.27150726318359	39.22613143920898	-258.2324829101562	-146.9647064208984	30.19246673583984	-294.5157165527344	-173.8570861816406	39.02710723876953	-176.8418273925781	-370.6507873535156	60.05925750732422	-236.1564483642578	
278	2.77	-117.6117324829102	1098.627685546875	-251.1233367919922	-115.3596572875977	1111.814453125	-386.309326171875	-122.7319183349609	1144.811157226562	-316.6517333984375	111.6641616821289	1332.437255859375	-310.3473205566406	-136.5135803222656	1293.653686523438	-297.689453125	-96.775634765625	1584.5927734375	-321.5923156738281	82.45207214355469	1469.43359375	-318.4549865722656	-149.8875885009766	1406.129272460938	-223.3448181152344	-112.1028213500977	1561.463256835938	-420.1686706542969	-32.03793334960938	1541.909545898438	-492.5016479492188	-63.56114196777344	1412.333984375	-559.825927734375	-56.70513534545898	1196.743408203125	-592.0732421875	-115.3560256958008	1181.580200195312	-529.7168579101562	52.27153396606445	942.528076171875	-569.0189208984375	-31.83260917663574	913.8330688476562	-587.6004638671875	-39.30132293701172	1081.34423828125	-602.3167114257812	70.02622985839844	747.702880859375	-558.9917602539062	-1.170384883880615	839.9147338867188	-595.2356567382812	68.68210601806641	854.6492309570312	-586.4619140625	-31.26209259033203	1572.39990234375	-143.4729919433594	-43.88652420043945	1501.136352539062	-76.08734130859375	-43.35748291015625	1206.992919921875	-39.76558685302734	-64.38953399658203	1201.90673828125	-133.6083374023438	124.6404113769531	983.6509399414062	-73.96475982666016	60.54780197143555	958.0081787109375	-29.25708961486816	-9.571619987487793	1136.216674804688	-26.78406143188477	172.2274475097656	794.2656860351562	-94.00982666015625	168.9310302734375	880.6490478515625	-73.34203338623047	110.776741027832	864.5858764648438	-30.90723037719727	-71.45829010009766	1748.95751953125	-258.4899597167969	79.66145324707031	1825.625244140625	-399.9216003417969	81.71512603759766	1838.293823242188	-271.0896301269531	-82.95006561279297	1738.888549804688	-393.7743835449219	-15.55847358703613	1033.41162109375	-498.2203369140625	-0.2165801972150803	990.1104125976562	-134.3681488037109	86.98699188232422	1064.351684570312	-176.9398651123047	86.31638336181641	1086.92431640625	-439.1448059082031	169.1990356445312	556.2236328125	-461.58349609375	97.90336608886719	685.7806396484375	-494.3709716796875	149.2222137451172	35.53187561035156	-461.40869140625	122.6705017089844	290.8436889648438	-492.5724487304688	372.664306640625	38.55708312988281	-380.9352722167969	289.9237365722656	44.50292205810547	-354.8169860839844	277.7359924316406	35.20635223388672	-471.5554809570312	74.42735290527344	38.15597915649414	-407.143310546875	-48.72738647460938	498.7908630371094	-188.1716003417969	3.837029457092285	778.716064453125	-153.2465972900391	-311.4490051269531	42.38594055175781	-192.8299255371094	-114.8693695068359	373.5569763183594	-173.6733856201172	-82.69788360595703	39.19604110717773	-258.5411682128906	-146.6318206787109	29.4700870513916	-294.9042663574219	-174.3122863769531	39.13156127929688	-177.4128570556641	-371.7304382324219	54.08633422851562	-238.7721099853516	
279	2.78	-128.4141235351562	1098.992797851562	-249.7468566894531	-126.4664459228516	1111.666137695312	-384.9830322265625	-133.6785278320312	1145.464477539062	-315.3536987304688	102.6744918823242	1331.914672851562	-308.6695556640625	-145.7205810546875	1294.532592773438	-296.2694091796875	-103.9929885864258	1585.225219726562	-318.8468627929688	74.40341186523438	1469.13427734375	-316.2872619628906	-158.2351684570312	1406.841674804688	-221.2453765869141	-119.5801010131836	1562.64453125	-417.5302124023438	-39.71387481689453	1542.8037109375	-490.098388671875	-72.17140960693359	1413.30078125	-557.219970703125	-66.28339385986328	1197.558227539062	-589.0659790039062	-124.5507583618164	1182.69384765625	-526.3269653320312	42.21553421020508	943.1100463867188	-565.7265014648438	-41.86446380615234	914.5986938476562	-584.2338256835938	-49.0353889465332	1082.146606445312	-599.208984375	59.78591918945312	748.3860473632812	-555.2421875	-11.33034133911133	840.6071166992188	-591.7228393554688	58.56451416015625	855.2262573242188	-583.0357055664062	-38.50064086914062	1571.996215820312	-140.8262786865234	-51.19552612304688	1500.586059570312	-73.648193359375	-50.81488418579102	1206.336059570312	-37.63605499267578	-72.3973388671875	1201.381591796875	-131.4064025878906	117.9920883178711	983.853271484375	-73.26496887207031	54.28839874267578	957.7210083007812	-28.31583976745605	-16.76210975646973	1135.586669921875	-25.01116561889648	166.6929168701172	794.8827514648438	-94.00479888916016	162.8998718261719	881.1434326171875	-73.09815216064453	104.7752685546875	864.601318359375	-30.48403739929199	-78.37961578369141	1748.640625	-254.9971923828125	72.106689453125	1825.702026367188	-396.9065246582031	74.55436706542969	1838.294921875	-268.0712585449219	-90.35923767089844	1738.725463867188	-390.2871398925781	-26.64373588562012	1032.28662109375	-496.4864501953125	-11.15071296691895	990.9557495117188	-132.7303771972656	76.29201507568359	1064.354858398438	-175.2466735839844	75.34185791015625	1086.305419921875	-437.4760131835938	160.4942169189453	556.8531494140625	-461.3739929199219	87.98005676269531	685.6947631835938	-493.8552551269531	149.5052185058594	35.75569534301758	-462.2368774414062	118.1472320556641	291.4023132324219	-492.8379211425781	371.6069946289062	39.60315322875977	-380.289306640625	289.036376953125	45.40970230102539	-354.6351318359375	277.9335632324219	35.44530487060547	-470.901123046875	74.25249481201172	38.17401504516602	-408.5240783691406	-57.9122428894043	499.5574951171875	-186.9893798828125	-6.345233917236328	779.6004028320312	-151.1209106445312	-312.2275085449219	39.4074592590332	-194.3498687744141	-121.8412628173828	373.2814331054688	-173.3056030273438	-82.19303131103516	39.15106964111328	-258.7567138671875	-146.3080902099609	28.91828155517578	-295.1986999511719	-174.694580078125	39.24688720703125	-177.8559112548828	-372.4622192382812	49.10474395751953	-240.8721618652344	
280	2.79	-139.1311340332031	1099.482788085938	-248.2482757568359	-137.4941711425781	1111.64501953125	-383.5020751953125	-144.5950775146484	1146.203002929688	-313.9686279296875	93.69501495361328	1331.63037109375	-307.0669250488281	-154.9707641601562	1295.611328125	-295.0795288085938	-111.1970596313477	1586.022216796875	-316.2953491210938	66.38760375976562	1469.068115234375	-314.2103576660156	-166.5822601318359	1407.702270507812	-219.3917694091797	-126.9422225952148	1564.049682617188	-415.111572265625	-47.20669937133789	1543.97412109375	-487.8636169433594	-80.55727386474609	1414.544189453125	-554.8107299804688	-75.71065521240234	1198.630859375	-586.1380004882812	-133.6737060546875	1184.131469726562	-523.055908203125	32.07487869262695	943.82373046875	-562.2826538085938	-51.95700454711914	915.6203002929688	-580.8258666992188	-58.64969635009766	1083.203125	-596.1303100585938	49.30194473266602	749.2308959960938	-551.3549194335938	-21.60491180419922	841.5355834960938	-588.1419067382812	48.30900573730469	855.936279296875	-579.4381103515625	-45.85623168945312	1571.728271484375	-138.3406982421875	-58.67719650268555	1500.177734375	-71.38883209228516	-58.49739456176758	1205.865478515625	-35.58779144287109	-80.54945373535156	1200.997924804688	-129.30224609375	111.0686950683594	984.1773681640625	-72.4110107421875	47.73063278198242	957.6036376953125	-27.25045585632324	-24.20709037780762	1135.146484375	-23.26372718811035	160.7598876953125	795.5617065429688	-93.79129791259766	156.5261993408203	881.7315063476562	-72.64649963378906	98.38899993896484	864.7576293945312	-29.87942123413086	-85.26345825195312	1748.410888671875	-251.5430297851562	64.58626556396484	1826.009033203125	-393.8513488769531	67.39301300048828	1838.452026367188	-265.0015563964844	-97.72307586669922	1738.766479492188	-386.8690795898438	-37.77514266967773	1031.308349609375	-494.681884765625	-21.80116081237793	992.0166625976562	-131.0530853271484	65.73291015625	1064.656005859375	-173.6136474609375	64.40205383300781	1085.854858398438	-435.893310546875	151.4261627197266	557.5242309570312	-461.5267333984375	77.59759521484375	685.6441040039062	-493.6279602050781	149.4706115722656	36.05617523193359	-463.32958984375	113.2379531860352	292.0900573730469	-493.3742065429688	369.9776306152344	41.23984146118164	-379.3827209472656	287.4998779296875	46.81356430053711	-354.519287109375	277.8545227050781	35.76206970214844	-470.2062072753906	73.62122344970703	38.25557327270508	-410.3178405761719	-66.12572479248047	500.4613952636719	-185.6763610839844	-15.96267604827881	780.6213989257812	-148.9637298583984	-312.8028259277344	37.07025146484375	-195.3851623535156	-127.9210586547852	373.2301940917969	-172.7737274169922	-81.82175445556641	39.10941314697266	-258.8719482421875	-146.0497283935547	28.52434158325195	-295.4033203125	-175.0135192871094	39.3477668762207	-178.1573638916016	-372.9581604003906	45.10700607299805	-242.3852386474609	
